<?xml version="1.0" encoding="UTF-8" standalone="no"?><!DOCTYPE svg PUBLIC "-//W3C//DTD SVG 1.1//EN" "http://www.w3.org/Graphics/SVG/1.1/DTD/svg11.dtd"><svg width="100%" height="100%" viewBox="0 0 534 534" version="1.1" xmlns="http://www.w3.org/2000/svg" xmlns:xlink="http://www.w3.org/1999/xlink" xml:space="preserve" xmlns:serif="http://www.serif.com/" style="fill-rule:evenodd;clip-rule:evenodd;stroke-linejoin:round;stroke-miterlimit:2;"><path d="M464.957,495.934l-98.57,-0c-2.294,-0 -9.161,-23.035 -20.602,-64.24c-36.77,-132.907 -59.659,-210.882 -64.24,-231.484l64.24,-64.233l2.287,-0c9.154,27.608 48.218,146.781 119.318,357.663l-2.433,2.294Zm-190.279,-323.194l-2.287,-0c-0,-6.861 -2.287,-9.155 -2.287,-9.155l-0,-2.286c18.308,-20.749 41.344,-41.351 64.233,-61.953c2.294,2.293 2.294,6.867 2.294,9.161c-22.897,25.176 -43.638,45.778 -61.953,64.233m-121.606,73.255l-2.287,-0c13.874,-41.205 20.742,-61.807 23.036,-64.094l139.913,-137.634c2.294,0 6.868,9.3 11.448,29.903l-172.11,171.825Zm25.322,-77.829c27.47,-87.129 43.492,-130.766 45.786,-130.766l84.835,-0c-32.044,32.189 -75.542,75.681 -130.621,130.766m-50.505,151.223l-2.287,-0c4.581,-16.029 11.449,-27.477 22.89,-36.631c36.77,-36.763 73.394,-73.394 110.164,-107.724c-2.287,11.441 -6.868,20.595 -13.735,27.469l-117.032,116.886Zm-59.659,176.545l-2.287,-2.294c27.616,-77.968 41.344,-119.318 43.638,-121.605l128.472,-128.334c-4.58,20.602 -29.902,103.158 -71.107,252.233l-98.716,-0Z" style="fill:#fff;fill-rule:nonzero;"/></svg>