<?xml version="1.0" encoding="UTF-8" standalone="no"?><!DOCTYPE svg PUBLIC "-//W3C//DTD SVG 1.1//EN" "http://www.w3.org/Graphics/SVG/1.1/DTD/svg11.dtd"><svg width="100%" height="100%" viewBox="0 0 3334 834" version="1.1" xmlns="http://www.w3.org/2000/svg" xmlns:xlink="http://www.w3.org/1999/xlink" xml:space="preserve" xmlns:serif="http://www.serif.com/" style="fill-rule:evenodd;clip-rule:evenodd;stroke-linejoin:round;stroke-miterlimit:2;"><rect x="0" y="0" width="3333.33" height="833.333" style="fill:#ff7002;"/><path d="M851.73,1469.51l171.565,-471.805l514.697,-514.698l-257.348,986.503l-428.914,0Zm857.828,-1158.07l343.131,1158.07l428.915,0l-471.806,-1415.42l-300.24,257.349Zm-612.018,471.891l526.235,-514.783l0,-85.783l-489.82,500.415l-36.415,100.151Zm189.194,-539.274l-91.873,238.948l717.316,-698.057l-38.859,-109.245l-586.584,568.354Zm377.016,-101.824l19.087,67.383l281.539,-276.564l-23.848,-63.308l-276.778,272.489Zm-337.684,4.675l169.035,-478.84l343.131,0l-512.166,478.84Z" style="fill:#fff;fill-opacity:0.15;fill-rule:nonzero;"/><path d="M1405.35,705.496l55.015,-151.292l165.045,-165.045l-82.522,316.337l-137.538,-0Zm275.075,-371.352l110.031,371.352l137.537,-0l-151.291,-453.875l-96.277,82.523Zm-196.252,151.319l168.745,-165.073l-0,-27.507l-157.068,160.465l-11.677,32.115Zm60.668,-172.926l-29.461,76.622l230.018,-223.843l-12.461,-35.03l-188.096,182.251Zm120.895,-32.652l6.121,21.608l90.28,-88.685l-7.647,-20.3l-88.754,87.377Zm-108.283,1.5l54.204,-153.548l110.03,0l-164.234,153.548Z" style="fill:none;fill-rule:nonzero;stroke:#fff;stroke-width:4.17px;"/></svg>